<?xml version="1.0" encoding="utf-8"?>
<!-- Generator: Adobe Illustrator 27.8.1, SVG Export Plug-In . SVG Version: 6.00 Build 0)  -->
<svg version="1.1" id="Layer_1" xmlns="http://www.w3.org/2000/svg" xmlns:xlink="http://www.w3.org/1999/xlink" x="0px" y="0px"
	 viewBox="0 0 84.99 46.08" style="enable-background:new 0 0 84.99 46.08;" xml:space="preserve">
<style type="text/css">
	.st0{fill:url(#SVGID_1_);}
</style>
<linearGradient id="SVGID_1_" gradientUnits="userSpaceOnUse" x1="11.2527" y1="1065.2036" x2="80.7203" y2="1014.9664" gradientTransform="matrix(1 0 0 -1 0 1065.64)">
	<stop  offset="0" style="stop-color:#21DBAA"/>
	<stop  offset="0.0716" style="stop-color:#18D0BD"/>
	<stop  offset="0.2266" style="stop-color:#07BCE1"/>
	<stop  offset="0.3091" style="stop-color:#00B4EF"/>
	<stop  offset="0.3872" style="stop-color:#01A8EC"/>
	<stop  offset="0.5287" style="stop-color:#0487E4"/>
	<stop  offset="0.6459" style="stop-color:#0768DD"/>
	<stop  offset="1" style="stop-color:#5F1AE5"/>
</linearGradient>
<path class="st0" d="M71.29,0l-9.57,33.88h-0.13L51.32,0h-12h-1.11h-9.34l-7.78,13.82L12.86,0H1.31l13.43,21.72L0,46.06h10.93
	l9.4-16.02l9.73,16.02h8.3h2.88h6.15V14.29h0.12c0.24,1.33,0.47,2.47,0.68,3.42s0.42,1.82,0.62,2.63c0.2,0.81,0.42,1.57,0.65,2.3
	c0.23,0.73,0.47,1.52,0.71,2.39l6.8,21.04h9.16l6.72-21.02c0.49-1.69,0.95-3.32,1.38-4.89c0.42-1.57,0.79-3.34,1.11-5.32h0.12v31.24
	h9.53V0H71.29z M25.92,21.7L37.88,1.85v39.31L25.92,21.7z"/>
</svg>
