<?xml version="1.0" encoding="UTF-8"?>
<svg id="Layer_1" xmlns="http://www.w3.org/2000/svg" viewBox="0 0 869.12 872.99">
  <defs>
    <style>
      .cls-1 {
        fill: #2c76a8;
      }

      .cls-2 {
        fill: #038de7;
      }
    </style>
  </defs>
  <path class="cls-2" d="M344.8,689.93c-161.23-.19-300.83-111.96-336.36-269.3C-33.42,235.22,84.56,49.05,269.79,8.22c175.65-38.72,352.11,62.6,404.34,233.93,33.26,109.12,15.75,211.22-49.58,304.87-2.49,3.57-2.25,5.31.76,8.07,5.53,5.05,10.72,10.49,15.94,15.86,1.59,1.64,2.54,2.37,4.68.36,6.6-6.2,10.93-5.93,17.46.6,66.8,66.82,133.59,133.64,200.38,200.46,7.18,7.18,7.13,11.68-.18,18.98-25.47,25.43-50.94,50.86-76.42,76.28-7.11,7.09-11.61,7.13-18.59.14-66.68-66.7-133.36-133.4-200.03-200.1-7.36-7.36-7.5-11.32-.22-18.92,1.93-2.02,1.51-2.97-.23-4.65-5.99-5.79-11.9-11.66-17.67-17.68-1.9-1.98-3.15-2.01-5.38-.42-41.72,29.68-87.76,49.19-138.14,58.36-20.53,3.74-41.24,5.57-62.11,5.55ZM344.98,623.53c153.17.46,277.52-123.65,278.69-278.17,1.16-152.79-124.28-278.47-278.41-278.94-153.15-.47-277.47,123.61-278.69,278.17-1.2,152.75,124.28,278.48,278.41,278.94Z"/>
  <path class="cls-2" d="M258.25,124.09c29.43-.35,56.31,1.4,82.8,7.29,5.68,1.27,11.29,2.91,16.31,6.06,2.54,1.59,3.94,3.47,3.84,6.85-.28,9.32-.48,18.68.05,27.98.37,6.53-2.05,11.31-6.8,15.16-2.16,1.75-2.65,2.72-.33,4.89,4.92,4.57,7.57,10.06,7.06,17.2-.55,7.62-.48,15.35.06,22.98.47,6.55-2.12,11.31-6.85,15.15-2.28,1.85-2.99,2.88-.38,5.22,5,4.49,7.7,9.96,7.17,17.14-.56,7.62-.47,15.35.05,22.98.5,7.39-2.85,12.39-8.34,16.42-8.8,6.47-19.1,9.42-29.55,11.57-42.46,8.74-85.01,8.43-127.56.58-8.29-1.53-15.76-5.32-23.03-9.38-8.04-4.49-12.31-11.28-12.06-20.84.2-7.82-.11-15.66-.35-23.49-.19-6.4,1.57-11.92,6.93-15.73,2.4-1.71,2.06-2.69.11-4.47-4.68-4.27-6.73-9.66-6.66-16.07.09-7.99-.12-16-.38-23.99-.2-6.17,1.36-11.61,6.12-15.7,2.27-1.95,1.92-3.18-.03-5.11-4.19-4.18-6.1-9.27-5.98-15.33.17-8.49.13-17.01-.35-25.48-.28-4.96,1.66-7.66,5.97-9.66,11.99-5.56,24.88-7.35,37.74-9.04,18.85-2.47,37.79-3.79,54.46-3.17ZM254.76,316.28c18.54.46,36.95-.84,55.2-4.09,11.8-2.1,23.54-4.54,34.19-10.47,3.81-2.12,5.84-4.88,5.56-9.62-.47-7.97-.43-15.98-.36-23.97.03-3.37-1.38-5.71-3.85-7.67-3.16-2.52-6.7-1.47-10.08-.87-9.34,1.66-18.57,4.49-27.96,5.12-41.03,2.74-82.12,5.8-122.37-6.75-7.09-2.21-13.17,3.18-13.07,10.54.1,7.99.36,15.99.21,23.97-.08,4.4,1.8,7.36,5.39,9.36,5.67,3.16,11.39,6.24,17.72,7.93,19.47,5.19,39.45,5.78,59.41,6.51ZM258.65,255.17c19.81-.03,39.59-.83,59.05-5.06,9.11-1.98,18.22-4.09,26.34-8.96,2.85-1.71,5.72-3.49,5.64-7.55-.19-9.15-.16-18.31-.44-27.46-.14-4.49-4.17-7.99-8.69-7.79-2.15.09-4.32.44-6.41.93-28.56,6.75-57.59,8.36-86.78,7.45-21.63-.67-43.23-1.83-63.88-9.5-5.35-1.99-11.4,2.61-11.42,8.36-.04,9.15.2,18.31.26,27.46.02,2.69,1.01,4.94,3.08,6.53,3.71,2.85,7.75,5.18,12.28,6.48,23.19,6.68,46.82,9.96,71,9.11ZM257.04,195.09c21.43-.53,43.09-.84,64.3-5.97,7.93-1.92,15.87-3.87,22.93-8.21,2.84-1.75,5.65-3.58,5.5-7.65-.23-5.99-.39-11.99-.35-17.98.02-2.81-.96-3.55-3.59-2.8-3.83,1.1-7.67,2.26-11.58,3.02-20.49,4.01-41.25,5.39-62.07,5.6-32.65.32-65.28-.12-97.12-8.86-2.65-.73-3.2.14-3.13,2.54.15,5.66.39,11.33.14,16.98-.2,4.66,1.99,7.52,5.71,9.68,5.23,3.03,10.98,4.73,16.71,6.46,20.35,6.15,41.37,6.29,62.54,7.17ZM336.14,142.32c-50.25-9.24-100.39-9.32-150.51-.02,50.19,8.96,100.39,9.13,150.51.02Z"/>
  <path class="cls-2" d="M181.74,400.97c0,11.16.18,22.32-.09,33.47-.1,4.1,1.01,5.37,5.24,5.33,22.48-.21,44.97.03,67.45-.21,4.34-.05,5.1,1.27,4.96,5.29-1.11,32.25-27.95,63.45-60.55,70.07-44.72,9.09-86.02-19.38-93.41-64.39-6.72-40.9,23.33-81.81,64.42-87.71q11.98-1.72,11.98,10.15c0,9.33,0,18.65,0,27.98Z"/>
  <path class="cls-2" d="M316.56,411.97c-9.39-.05-15.07-5.73-14.42-14.42.44-5.8,7.09-11.47,14.3-11.44,3.11.02,4.87-1.14,6.64-3.29,24.34-29.48,48.72-58.92,73.08-88.39,8.15-9.86,16.16-19.84,24.44-29.59,1.94-2.29,3.02-4.08,1.28-6.95-1.39-2.29-.86-4.69.33-7.12,3.34-6.85,8.59-9.63,17.32-8.7,6.6.7,12.18,5.24,12.01,11.84-.18,7.03,4.33,8.41,7.77,11.29,13.66,11.41,27.53,22.58,41.39,33.74,14.23,11.45,28.55,22.79,42.81,34.2,1.42,1.14,2.75,2.41,4.1,3.64,1.47,1.34,2.92,1.71,4.99,1.04,7.59-2.48,18.27,5.36,17.65,12.58-.65,7.56-7.18,13.92-15.43,13.57-6.98-.3-16.12-6.62-14.41-15.63.53-2.79-1.65-3.44-3.05-4.57-25.88-20.91-51.81-41.76-77.73-62.62-4.15-3.34-8.32-6.65-12.45-10.01-7.06-5.74-11.56-5.2-17.31,1.77-32.28,39.08-64.61,78.11-96.91,117.18-1.1,1.33-2.59,2.37-2.09,4.68,2.28,10.47-3.43,17.26-14.29,17.2Z"/>
  <path class="cls-2" d="M465.83,437.07c0,24.99-.07,49.99.07,74.98.02,3.59-.76,5.06-4.67,4.87-6.65-.32-13.34-.35-19.99,0-4.27.23-5.24-1.26-5.23-5.34.14-47.49.09-94.97.09-142.46,0-2.83.11-5.67-.03-8.5-.12-2.51.68-3.62,3.38-3.58,7.66.12,15.33.19,22.99-.02,3.73-.1,3.39,2.15,3.39,4.55-.02,25.16-.01,50.32-.01,75.48Z"/>
  <path class="cls-1" d="M226.13,433.49c-11.32,0-22.64-.08-33.96.05-2.98.03-4.43-.39-4.41-3.98.17-23.14.13-46.29.02-69.43-.01-3.1.89-4.06,3.99-3.85,39.17,2.65,69.7,32.67,73.1,71.82.34,3.88-.19,5.64-4.78,5.5-11.31-.35-22.64-.11-33.96-.11Z"/>
  <path class="cls-2" d="M555.06,447.46c0,21.49-.08,42.99.08,64.48.03,3.72-.62,5.31-4.82,5.08-7.14-.39-14.33-.2-21.49-.06-2.62.05-3.81-.42-3.81-3.47.09-44.32.09-88.64,0-132.96,0-2.96,1.02-3.62,3.75-3.56,7.33.16,14.67.25,21.99-.03,3.63-.14,4.4,1.14,4.38,4.54-.14,21.99-.07,43.99-.07,65.98Z"/>
  <path class="cls-1" d="M510.13,457.11c0,18.16-.14,36.31.1,54.46.06,4.25-1.2,5.32-5.29,5.11-6.81-.36-13.66-.22-20.48-.04-2.88.08-3.65-.91-3.65-3.72.08-37.31.09-74.62-.01-111.93,0-3.23,1.16-3.89,4.06-3.82,7.16.17,14.33.22,21.48-.02,3.19-.11,3.87,1.01,3.85,3.99-.13,18.65-.06,37.31-.06,55.96Z"/>
  <path class="cls-1" d="M421.12,466.43c0,15.14-.11,30.29.08,45.43.05,3.55-.58,5.03-4.55,4.82-6.8-.36-13.64-.22-20.46-.04-3.05.08-4.32-.5-4.31-4.04.16-30.62.12-61.24.04-91.86,0-2.69.52-3.83,3.52-3.75,7.32.21,14.65.25,21.96-.01,3.28-.12,3.8,1.13,3.77,4.02-.12,15.14-.06,30.29-.06,45.43Z"/>
  <path class="cls-1" d="M332.08,476.96c0,11.98-.08,23.96.06,35.94.03,2.76-.65,3.81-3.57,3.74-7.48-.18-14.98-.17-22.46,0-2.84.06-3.69-.84-3.68-3.68.1-23.96.1-47.93,0-71.89-.01-2.98.71-4.09,3.87-4,7.32.22,14.65.22,21.96,0,3.11-.09,3.93.91,3.89,3.95-.17,11.98-.07,23.96-.07,35.94Z"/>
  <path class="cls-2" d="M346.98,486.45c0-8.66.09-17.32-.05-25.98-.05-2.73.63-3.82,3.58-3.75,7.66.19,15.32.18,22.98,0,2.96-.07,3.59,1.08,3.58,3.79-.1,17.65-.09,35.31,0,52.97.01,2.53-.67,3.55-3.37,3.5-7.83-.15-15.66-.16-23.48,0-2.79.06-3.3-1.11-3.27-3.54.1-8.99.04-17.99.04-26.98Z"/>
  <path class="cls-2" d="M330.67,234.07c3.01-1.06,2.67-3.86,1.79-6.64-.71-2.26-3.84-2.58-6.7-1.79-8.04,2.23-23.66,3.47-30.32,3.48-2.93,0-4.14,2.88-3.84,6.06.27,2.92,2.46,3.61,6.25,3.61s22.32-1.01,32.83-4.73Z"/>
  <path class="cls-2" d="M331.07,295.73c3.01-1.06,2.67-3.86,1.79-6.64-.71-2.26-3.84-2.58-6.7-1.79-8.04,2.23-23.66,3.47-30.32,3.48-2.93,0-4.14,2.88-3.84,6.06.27,2.92,2.46,3.61,6.25,3.61s22.32-1.01,32.83-4.73Z"/>
  <path class="cls-2" d="M330.67,175.59c3.01-1.06,2.67-3.86,1.79-6.64-.71-2.26-3.84-2.58-6.7-1.79-8.04,2.23-23.66,3.47-30.32,3.48-2.93,0-4.14,2.88-3.84,6.06.27,2.92,2.46,3.61,6.25,3.61s22.32-1.01,32.83-4.73Z"/>
</svg>